<svg width="249" height="147" viewBox="0 0 249 147" fill="none" xmlns="http://www.w3.org/2000/svg">
<path d="M6.75741 135.424C6.75741 136.255 6.46341 136.908 5.87541 137.384C5.28741 137.86 4.52675 138.098 3.59341 138.098C2.55741 138.098 1.69875 137.897 1.01741 137.496V135.998C1.75475 136.549 2.60875 136.824 3.57941 136.824C4.09275 136.824 4.49875 136.707 4.79741 136.474C5.09608 136.231 5.24541 135.9 5.24541 135.48C5.24541 135.228 5.15675 134.999 4.97941 134.794C4.80208 134.579 4.61075 134.421 4.40541 134.318C4.20008 134.206 3.89208 134.057 3.48141 133.87C3.23875 133.758 3.06608 133.679 2.96341 133.632C2.87008 133.585 2.71141 133.501 2.48741 133.38C2.26341 133.259 2.09541 133.156 1.98341 133.072C1.88075 132.988 1.75008 132.871 1.59141 132.722C1.43275 132.573 1.31608 132.423 1.24141 132.274C1.17608 132.125 1.11075 131.952 1.04541 131.756C0.989414 131.551 0.961414 131.331 0.961414 131.098C0.961414 130.295 1.25075 129.661 1.82941 129.194C2.41741 128.727 3.17341 128.494 4.09741 128.494C4.94675 128.494 5.67008 128.643 6.26741 128.942V130.37C5.64208 129.978 4.93275 129.782 4.13941 129.782C3.62608 129.782 3.22008 129.899 2.92141 130.132C2.63208 130.356 2.48741 130.655 2.48741 131.028C2.48741 131.401 2.63208 131.7 2.92141 131.924C3.21075 132.148 3.65408 132.391 4.25141 132.652C4.64341 132.82 4.94675 132.965 5.16141 133.086C5.38541 133.207 5.63741 133.38 5.91741 133.604C6.20675 133.819 6.41675 134.08 6.54741 134.388C6.68741 134.687 6.75741 135.032 6.75741 135.424ZM15.5982 138H14.1562V133.87H9.9142V138H8.4722V128.564H9.9142V132.624H14.1562V128.564H15.5982V138ZM24.7857 129.712C25.5604 130.589 25.9477 131.765 25.9477 133.24C25.9477 134.715 25.5557 135.895 24.7717 136.782C23.997 137.669 22.947 138.112 21.6217 138.112C20.3057 138.112 19.251 137.669 18.4577 136.782C17.6737 135.895 17.2817 134.715 17.2817 133.24C17.2817 131.775 17.6737 130.599 18.4577 129.712C19.2417 128.825 20.2917 128.382 21.6077 128.382C22.9517 128.382 24.011 128.825 24.7857 129.712ZM19.5357 130.678C19.041 131.303 18.7937 132.157 18.7937 133.24C18.7937 134.323 19.0504 135.181 19.5637 135.816C20.077 136.451 20.763 136.768 21.6217 136.768C22.5084 136.768 23.199 136.455 23.6937 135.83C24.1884 135.205 24.4357 134.341 24.4357 133.24C24.4357 132.148 24.1837 131.289 23.6797 130.664C23.185 130.039 22.4944 129.726 21.6077 129.726C20.7304 129.726 20.0397 130.043 19.5357 130.678ZM31.2388 138H29.5028L27.0248 128.564H28.5228L29.4048 132.05L30.4408 136.474C30.8608 134.906 31.2715 133.431 31.6728 132.05L32.6388 128.704H33.9128L34.9068 132.064L36.1808 136.502C36.5262 134.803 36.8482 133.324 37.1468 132.064L37.9728 128.564H39.4288L37.1188 138H35.3968L34.5008 135.018L33.2828 130.804C33.0682 131.691 32.6762 133.095 32.1068 135.018L31.2388 138ZM45.5841 138H44.1421V128.564H45.8501L48.1741 132.512C48.6035 133.249 48.9908 133.931 49.3361 134.556C49.6908 135.181 49.9335 135.62 50.0641 135.872L50.2601 136.264C50.2041 135.415 50.1761 134.169 50.1761 132.526V128.564H51.6181V138H49.9101L47.5721 134.066C47.1521 133.357 46.7648 132.689 46.4101 132.064C46.0648 131.429 45.8221 130.972 45.6821 130.692L45.4721 130.286C45.5468 131.219 45.5841 132.475 45.5841 134.052V138ZM60.7837 129.712C61.5584 130.589 61.9457 131.765 61.9457 133.24C61.9457 134.715 61.5537 135.895 60.7697 136.782C59.9951 137.669 58.9451 138.112 57.6197 138.112C56.3037 138.112 55.2491 137.669 54.4557 136.782C53.6717 135.895 53.2797 134.715 53.2797 133.24C53.2797 131.775 53.6717 130.599 54.4557 129.712C55.2397 128.825 56.2897 128.382 57.6057 128.382C58.9497 128.382 60.0091 128.825 60.7837 129.712ZM55.5337 130.678C55.0391 131.303 54.7917 132.157 54.7917 133.24C54.7917 134.323 55.0484 135.181 55.5617 135.816C56.0751 136.451 56.7611 136.768 57.6197 136.768C58.5064 136.768 59.1971 136.455 59.6917 135.83C60.1864 135.205 60.4337 134.341 60.4337 133.24C60.4337 132.148 60.1817 131.289 59.6777 130.664C59.1831 130.039 58.4924 129.726 57.6057 129.726C56.7284 129.726 56.0377 130.043 55.5337 130.678ZM67.2369 138H65.5009L63.0229 128.564H64.5209L65.4029 132.05L66.4389 136.474C66.8589 134.906 67.2695 133.431 67.6709 132.05L68.6369 128.704H69.9109L70.9049 132.064L72.1789 136.502C72.5242 134.803 72.8462 133.324 73.1449 132.064L73.9709 128.564H75.4269L73.1169 138H71.3949L70.4989 135.018L69.2809 130.804C69.0662 131.691 68.6742 133.095 68.1049 135.018L67.2369 138Z" fill="#F4F9FC"/>
<path opacity="0.6" d="M9.84 17.12C8.912 17.792 7.74933 18.128 6.352 18.128C4.66667 18.128 3.30667 17.632 2.272 16.64C1.248 15.648 0.736 14.2987 0.736 12.592C0.736 10.9387 1.25333 9.6 2.288 8.576C3.33333 7.54133 4.656 7.024 6.256 7.024C7.504 7.024 8.54933 7.264 9.392 7.744V9.44C8.47467 8.864 7.45067 8.576 6.32 8.576C5.168 8.576 4.23467 8.944 3.52 9.68C2.816 10.416 2.464 11.3867 2.464 12.592C2.464 13.8293 2.81067 14.8053 3.504 15.52C4.208 16.2347 5.17333 16.592 6.4 16.592C7.04 16.592 7.648 16.4747 8.224 16.24V13.264H6.032V11.84H9.84V17.008H9.824L9.84 17.12ZM18.2826 18H12.0586V7.216H18.2026V8.592H13.7066V11.92H17.6906V13.296H13.7066V16.624H18.2826V18ZM26.7574 8.592H23.9254V18H22.2774V8.592H19.4614V7.216H26.7574V8.592ZM40.1398 13.872C40.1398 15.2693 39.7771 16.3307 39.0518 17.056C38.3264 17.7813 37.3238 18.144 36.0438 18.144C34.7851 18.144 33.7931 17.792 33.0678 17.088C32.3424 16.3733 31.9798 15.344 31.9798 14V7.216H33.6278V13.984C33.6278 14.9013 33.8464 15.5733 34.2838 16C34.7318 16.416 35.3184 16.624 36.0438 16.624C37.6758 16.624 38.4918 15.7173 38.4918 13.904V7.216H40.1398V13.872ZM45.6333 14.176H44.0973V18H42.4493V7.216H45.5373C46.7746 7.216 47.7559 7.54667 48.4813 8.208C49.2066 8.85867 49.5693 9.696 49.5693 10.72C49.5693 11.744 49.2013 12.576 48.4653 13.216C47.7399 13.856 46.7959 14.176 45.6333 14.176ZM45.4733 8.576H44.0973V12.816H45.5052C46.2839 12.816 46.8759 12.624 47.2813 12.24C47.6973 11.856 47.9053 11.3493 47.9053 10.72C47.9053 10.0587 47.6973 9.536 47.2813 9.152C46.8653 8.768 46.2626 8.576 45.4733 8.576ZM61.4605 8.592H58.6285V18H56.9805V8.592H54.1645V7.216H61.4605V8.592ZM71.1245 8.528C72.0098 9.53067 72.4525 10.8747 72.4525 12.56C72.4525 14.2453 72.0045 15.5947 71.1085 16.608C70.2232 17.6213 69.0232 18.128 67.5085 18.128C66.0045 18.128 64.7992 17.6213 63.8925 16.608C62.9965 15.5947 62.5485 14.2453 62.5485 12.56C62.5485 10.8853 62.9965 9.54133 63.8925 8.528C64.7885 7.51467 65.9885 7.008 67.4925 7.008C69.0285 7.008 70.2392 7.51467 71.1245 8.528ZM65.1245 9.632C64.5592 10.3467 64.2765 11.3227 64.2765 12.56C64.2765 13.7973 64.5698 14.7787 65.1565 15.504C65.7432 16.2293 66.5272 16.592 67.5085 16.592C68.5218 16.592 69.3112 16.2347 69.8765 15.52C70.4418 14.8053 70.7245 13.8187 70.7245 12.56C70.7245 11.312 70.4365 10.3307 69.8605 9.616C69.2952 8.90133 68.5058 8.544 67.4925 8.544C66.4898 8.544 65.7005 8.90667 65.1245 9.632ZM84.2019 18H77.4979V16.704C78.8419 15.7227 79.9725 14.7093 80.8899 13.664C81.8179 12.608 82.2819 11.648 82.2819 10.784C82.2819 10.176 82.1059 9.712 81.7539 9.392C81.4019 9.06133 80.9165 8.896 80.2979 8.896C79.4445 8.896 78.6072 9.216 77.7859 9.856V8.304C78.5539 7.71733 79.4659 7.424 80.5219 7.424C81.5032 7.424 82.3139 7.70133 82.9539 8.256C83.5939 8.8 83.9139 9.57867 83.9139 10.592C83.9139 12.4693 82.4952 14.4853 79.6579 16.64H84.2019V18ZM92.9234 12.736C92.9234 14.368 92.598 15.6747 91.9474 16.656C91.3074 17.6373 90.39 18.128 89.1954 18.128C88.054 18.128 87.1527 17.6373 86.4914 16.656C85.8407 15.6747 85.5154 14.368 85.5154 12.736C85.5154 11.0933 85.8407 9.792 86.4914 8.832C87.1527 7.86133 88.054 7.376 89.1954 7.376C90.358 7.376 91.27 7.856 91.9314 8.816C92.5927 9.776 92.9234 11.0827 92.9234 12.736ZM87.7074 9.856C87.3127 10.528 87.1154 11.488 87.1154 12.736C87.1154 13.984 87.3074 14.9547 87.6914 15.648C88.086 16.3307 88.5874 16.672 89.1954 16.672C89.8567 16.672 90.374 16.3307 90.7474 15.648C91.1207 14.9653 91.3074 13.9947 91.3074 12.736C91.3074 11.4667 91.11 10.5013 90.7154 9.84C90.3314 9.168 89.8247 8.832 89.1954 8.832C88.598 8.832 88.102 9.17333 87.7074 9.856ZM98.4421 18.016H96.9701L102.794 7.168H104.282L98.4421 18.016ZM99.7061 9.68C99.7061 10.4267 99.4448 11.0613 98.9221 11.584C98.3995 12.1067 97.7648 12.368 97.0181 12.368C96.2821 12.368 95.6528 12.1067 95.1301 11.584C94.6075 11.0613 94.3461 10.4267 94.3461 9.68C94.3461 8.944 94.6075 8.31467 95.1301 7.792C95.6528 7.26933 96.2821 7.008 97.0181 7.008C97.7648 7.008 98.3995 7.26933 98.9221 7.792C99.4448 8.31467 99.7061 8.944 99.7061 9.68ZM95.6741 9.68C95.6741 10.0533 95.8021 10.3733 96.0581 10.64C96.3248 10.9067 96.6448 11.04 97.0181 11.04C97.3915 11.04 97.7115 10.9067 97.9781 10.64C98.2448 10.3733 98.3781 10.0533 98.3781 9.68C98.3781 9.30667 98.2448 8.992 97.9781 8.736C97.7115 8.46933 97.3915 8.336 97.0181 8.336C96.6448 8.336 96.3248 8.46933 96.0581 8.736C95.8021 9.00267 95.6741 9.31733 95.6741 9.68ZM106.954 15.44C106.954 16.1867 106.693 16.8213 106.17 17.344C105.647 17.856 105.018 18.112 104.282 18.112C103.535 18.112 102.901 17.856 102.378 17.344C101.855 16.8213 101.594 16.1867 101.594 15.44C101.594 14.704 101.855 14.0747 102.378 13.552C102.901 13.0187 103.535 12.752 104.282 12.752C105.018 12.752 105.647 13.0187 106.17 13.552C106.693 14.0747 106.954 14.704 106.954 15.44ZM103.322 14.48C103.055 14.7467 102.922 15.0667 102.922 15.44C102.922 15.8133 103.055 16.1333 103.322 16.4C103.589 16.6667 103.909 16.8 104.282 16.8C104.655 16.8 104.97 16.6667 105.226 16.4C105.493 16.1333 105.626 15.8133 105.626 15.44C105.626 15.0667 105.493 14.7467 105.226 14.48C104.97 14.2133 104.655 14.08 104.282 14.08C103.909 14.08 103.589 14.2133 103.322 14.48ZM120.765 8.528C121.65 9.53067 122.093 10.8747 122.093 12.56C122.093 14.2453 121.645 15.5947 120.749 16.608C119.864 17.6213 118.664 18.128 117.149 18.128C115.645 18.128 114.44 17.6213 113.533 16.608C112.637 15.5947 112.189 14.2453 112.189 12.56C112.189 10.8853 112.637 9.54133 113.533 8.528C114.429 7.51467 115.629 7.008 117.133 7.008C118.669 7.008 119.88 7.51467 120.765 8.528ZM114.765 9.632C114.2 10.3467 113.917 11.3227 113.917 12.56C113.917 13.7973 114.21 14.7787 114.797 15.504C115.384 16.2293 116.168 16.592 117.149 16.592C118.162 16.592 118.952 16.2347 119.517 15.52C120.082 14.8053 120.365 13.8187 120.365 12.56C120.365 11.312 120.077 10.3307 119.501 9.616C118.936 8.90133 118.146 8.544 117.133 8.544C116.13 8.544 115.341 8.90667 114.765 9.632ZM129.564 13.504H125.644V18H123.996V7.216H130.108V8.592H125.644V12.128H129.564V13.504ZM137.47 13.504H133.55V18H131.902V7.216H138.014V8.592H133.55V12.128H137.47V13.504ZM150.023 8.592H147.191V18H145.543V8.592H142.727V7.216H150.023V8.592ZM159.687 8.528C160.572 9.53067 161.015 10.8747 161.015 12.56C161.015 14.2453 160.567 15.5947 159.671 16.608C158.786 17.6213 157.586 18.128 156.071 18.128C154.567 18.128 153.362 17.6213 152.455 16.608C151.559 15.5947 151.111 14.2453 151.111 12.56C151.111 10.8853 151.559 9.54133 152.455 8.528C153.351 7.51467 154.551 7.008 156.055 7.008C157.591 7.008 158.802 7.51467 159.687 8.528ZM153.687 9.632C153.122 10.3467 152.839 11.3227 152.839 12.56C152.839 13.7973 153.132 14.7787 153.719 15.504C154.306 16.2293 155.09 16.592 156.071 16.592C157.084 16.592 157.874 16.2347 158.439 15.52C159.004 14.8053 159.287 13.8187 159.287 12.56C159.287 11.312 158.999 10.3307 158.423 9.616C157.858 8.90133 157.068 8.544 156.055 8.544C155.052 8.544 154.263 8.90667 153.687 9.632ZM166.31 18H162.918V7.216H166.278C167.878 7.216 169.19 7.712 170.214 8.704C171.238 9.696 171.75 10.96 171.75 12.496C171.75 14.096 171.265 15.4133 170.294 16.448C169.334 17.4827 168.006 18 166.31 18ZM166.246 8.624H164.598V16.608H166.294C167.521 16.608 168.454 16.224 169.094 15.456C169.734 14.688 170.054 13.7013 170.054 12.496C170.054 11.3867 169.707 10.464 169.014 9.728C168.321 8.992 167.398 8.624 166.246 8.624ZM176.15 13.44L175.974 13.984H179.43L179.254 13.44C178.849 12.1813 178.518 11.1413 178.262 10.32C178.006 9.488 177.851 8.97067 177.798 8.768L177.718 8.464C177.601 8.96533 177.078 10.624 176.15 13.44ZM174.662 18H172.918L176.646 7.216H178.806L182.486 18H180.726L179.878 15.36H175.526L174.662 18ZM188.648 18H187V13.984L183.352 7.216H185.24L186.008 8.8C186.499 9.792 186.894 10.608 187.192 11.248C187.491 11.888 187.667 12.2827 187.72 12.432L187.816 12.64C187.912 12.32 188.531 11.04 189.672 8.8L190.456 7.216H192.344L188.648 13.984V18ZM205.765 8.528C206.65 9.53067 207.093 10.8747 207.093 12.56C207.093 14.2453 206.645 15.5947 205.749 16.608C204.864 17.6213 203.664 18.128 202.149 18.128C200.645 18.128 199.44 17.6213 198.533 16.608C197.637 15.5947 197.189 14.2453 197.189 12.56C197.189 10.8853 197.637 9.54133 198.533 8.528C199.429 7.51467 200.629 7.008 202.133 7.008C203.669 7.008 204.88 7.51467 205.765 8.528ZM199.765 9.632C199.2 10.3467 198.917 11.3227 198.917 12.56C198.917 13.7973 199.21 14.7787 199.797 15.504C200.384 16.2293 201.168 16.592 202.149 16.592C203.162 16.592 203.952 16.2347 204.517 15.52C205.082 14.8053 205.365 13.8187 205.365 12.56C205.365 11.312 205.077 10.3307 204.501 9.616C203.936 8.90133 203.146 8.544 202.133 8.544C201.13 8.544 200.341 8.90667 199.765 9.632ZM210.644 18H208.996V7.216H210.948L213.604 11.728C214.095 12.5707 214.537 13.3493 214.932 14.064C215.337 14.7787 215.615 15.28 215.764 15.568L215.988 16.016C215.924 15.0453 215.892 13.6213 215.892 11.744V7.216H217.54V18H215.588L212.916 13.504C212.436 12.6933 211.993 11.9307 211.588 11.216C211.193 10.4907 210.916 9.968 210.756 9.648L210.516 9.184C210.601 10.2507 210.644 11.6853 210.644 13.488V18ZM225.935 18H219.871V7.216H221.519V16.544H225.935V18ZM232.055 18H230.407V13.984L226.759 7.216H228.647L229.415 8.8C229.905 9.792 230.3 10.608 230.599 11.248C230.897 11.888 231.073 12.2827 231.127 12.432L231.223 12.64C231.319 12.32 231.937 11.04 233.079 8.8L233.863 7.216H235.751L232.055 13.984V18ZM238.989 14.576H237.453V7.216H238.989V14.576ZM239.309 17.04C239.309 17.3493 239.202 17.6107 238.989 17.824C238.776 18.0267 238.514 18.128 238.205 18.128C237.896 18.128 237.634 18.0267 237.421 17.824C237.218 17.6107 237.117 17.3493 237.117 17.04C237.117 16.7307 237.218 16.4693 237.421 16.256C237.634 16.0427 237.896 15.936 238.205 15.936C238.504 15.936 238.76 16.048 238.973 16.272C239.197 16.4853 239.309 16.7413 239.309 17.04Z" fill="#F4F9FC"/>
<path d="M15.345 44.33H10.044V62H6.107V44.33H0.806V41.106H15.345V44.33ZM34.7055 62H30.7685V53.227H22.1815V62H18.2755V41.106H22.1815V49.848H30.7685V41.106H34.7055V62ZM51.505 62H39.043V41.106H51.381V44.299H42.98V49.972H50.451V53.134H42.98V58.807H51.505V62ZM65.5025 54.25H70.8345V44.051L65.5025 54.25ZM74.5545 62H70.8345V57.443H61.8135V54.25L68.5715 41.695H74.5545V54.25H77.2205V57.443H74.5545V62ZM96.7106 62H91.7816L84.2796 51.646L91.5026 41.106H96.1836L88.9296 51.584L96.7106 62ZM83.9696 62H80.0636V41.106H83.9696V62ZM123.437 62H119.5V53.227H110.913V62H107.007V41.106H110.913V49.848H119.5V41.106H123.437V62ZM134.594 62H127.774V41.106H134.594C137.715 41.106 140.267 42.067 142.251 43.989C144.235 45.911 145.227 48.3393 145.227 51.274C145.227 54.4773 144.266 57.071 142.344 59.055C140.422 61.0183 137.839 62 134.594 62ZM134.47 44.392H131.773V58.745H134.532C136.723 58.745 138.387 58.0733 139.523 56.73C140.66 55.366 141.228 53.5473 141.228 51.274C141.228 49.2693 140.619 47.6263 139.399 46.345C138.201 45.043 136.558 44.392 134.47 44.392ZM155.141 44.33H152.599V51.15H155.203C156.402 51.15 157.301 50.8503 157.9 50.251C158.5 49.631 158.799 48.7733 158.799 47.678C158.799 46.6033 158.479 45.7767 157.838 45.198C157.218 44.6193 156.319 44.33 155.141 44.33ZM152.599 62H148.693V41.106H155.141C157.518 41.106 159.378 41.7053 160.721 42.904C162.085 44.1027 162.767 45.7043 162.767 47.709C162.747 49.197 162.385 50.4577 161.682 51.491C160.98 52.5037 160.019 53.258 158.799 53.754L164.162 62H159.481L154.738 54.374H152.599V62ZM17.422 101.008C16.1407 101.835 14.3427 102.248 12.028 102.248C8.928 102.248 6.36533 101.277 4.34 99.334C2.33533 97.3707 1.333 94.777 1.333 91.553C1.333 88.391 2.325 85.818 4.309 83.834C6.31367 81.8293 8.88667 80.827 12.028 80.827C14.322 80.827 16.1097 81.2093 17.391 81.974V85.787C15.8203 84.8777 14.0843 84.423 12.183 84.423C10.2817 84.423 8.69033 85.074 7.409 86.376C6.14833 87.6573 5.518 89.383 5.518 91.553C5.518 93.723 6.14833 95.4487 7.409 96.73C8.69033 98.0113 10.354 98.652 12.4 98.652C14.3633 98.652 16.0373 98.1353 17.422 97.102V101.008ZM39.9706 91.491C39.9706 94.715 39.0716 97.3087 37.2736 99.272C35.4963 101.235 33.1093 102.217 30.1126 102.217C27.116 102.217 24.7186 101.235 22.9206 99.272C21.1226 97.3087 20.2236 94.715 20.2236 91.491C20.2236 88.2463 21.1123 85.6423 22.8896 83.679C24.6876 81.7157 27.085 80.734 30.0816 80.734C33.1196 80.734 35.5273 81.7157 37.3046 83.679C39.082 85.6217 39.9706 88.2257 39.9706 91.491ZM24.4086 91.491C24.4086 93.6817 24.9253 95.4177 25.9586 96.699C26.992 97.9803 28.3766 98.621 30.1126 98.621C31.8693 98.621 33.254 97.9907 34.2666 96.73C35.2793 95.4487 35.7856 93.7023 35.7856 91.491C35.7856 89.2797 35.2793 87.5333 34.2666 86.252C33.254 84.9707 31.859 84.33 30.0816 84.33C28.325 84.33 26.9403 84.9707 25.9276 86.252C24.915 87.5333 24.4086 89.2797 24.4086 91.491ZM46.997 102H43.091L44.765 81.106H49.229L52.081 88.701C52.577 89.9823 53.042 91.2637 53.476 92.545C53.91 93.8057 54.22 94.746 54.406 95.366L54.685 96.327C55.3256 94.1777 56.2143 91.6357 57.351 88.701L60.265 81.106H64.729L66.775 102H62.869L62.125 93.847L61.567 86.531C60.823 88.6597 59.9343 91.0983 58.901 93.847L55.987 101.69H53.321L50.469 93.847L48.02 86.624C48.02 87.6367 47.8856 90.0443 47.617 93.847L46.997 102ZM77.3733 94.901H74.6453V102H70.7393V81.106H77.2803C79.6363 81.106 81.517 81.7467 82.9223 83.028C84.3483 84.3093 85.0613 85.9523 85.0613 87.957C85.0613 90.0857 84.3277 91.7803 82.8603 93.041C81.4137 94.281 79.5847 94.901 77.3733 94.901ZM76.9393 84.299H74.6453V91.739H76.8463C78.2723 91.739 79.3367 91.398 80.0393 90.716C80.742 90.034 81.0933 89.1143 81.0933 87.957C81.0933 86.8203 80.742 85.9317 80.0393 85.291C79.3367 84.6297 78.3033 84.299 76.9393 84.299ZM93.5449 93.165L93.2659 94.064H99.1559L98.8769 93.134C98.1743 90.902 97.5956 89.0317 97.1409 87.523C96.7069 85.9937 96.4383 85.0327 96.3349 84.64L96.2109 84.02C96.0249 85.0533 95.1363 88.1017 93.5449 93.165ZM90.7549 102H86.6629L93.7309 81.106H98.7839L105.852 102H101.636L100.148 97.257H92.2429L90.7549 102ZM124.106 101.008C122.824 101.835 121.026 102.248 118.712 102.248C115.612 102.248 113.049 101.277 111.024 99.334C109.019 97.3707 108.017 94.777 108.017 91.553C108.017 88.391 109.009 85.818 110.993 83.834C112.997 81.8293 115.57 80.827 118.712 80.827C121.006 80.827 122.793 81.2093 124.075 81.974V85.787C122.504 84.8777 120.768 84.423 118.867 84.423C116.965 84.423 115.374 85.074 114.093 86.376C112.832 87.6573 112.202 89.383 112.202 91.553C112.202 93.723 112.832 95.4487 114.093 96.73C115.374 98.0113 117.038 98.652 119.084 98.652C121.047 98.652 122.721 98.1353 124.106 97.102V101.008ZM140.919 84.33H135.618V102H131.681V84.33H126.38V81.106H140.919V84.33ZM158.147 102H151.327V81.106H158.147C161.268 81.106 163.82 82.067 165.804 83.989C167.788 85.911 168.78 88.3393 168.78 91.274C168.78 94.4773 167.819 97.071 165.897 99.055C163.975 101.018 161.392 102 158.147 102ZM158.023 84.392H155.326V98.745H158.085C160.276 98.745 161.94 98.0733 163.076 96.73C164.213 95.366 164.781 93.5473 164.781 91.274C164.781 89.2693 164.172 87.6263 162.952 86.345C161.754 85.043 160.111 84.392 158.023 84.392ZM178.694 84.33H176.152V91.15H178.756C179.955 91.15 180.854 90.8503 181.453 90.251C182.053 89.631 182.352 88.7733 182.352 87.678C182.352 86.6033 182.032 85.7767 181.391 85.198C180.771 84.6193 179.872 84.33 178.694 84.33ZM176.152 102H172.246V81.106H178.694C181.071 81.106 182.931 81.7053 184.274 82.904C185.638 84.1027 186.32 85.7043 186.32 87.709C186.3 89.197 185.938 90.4577 185.235 91.491C184.533 92.5037 183.572 93.258 182.352 93.754L187.715 102H183.034L178.291 94.374H176.152V102ZM209.411 91.491C209.411 94.715 208.512 97.3087 206.714 99.272C204.937 101.235 202.55 102.217 199.553 102.217C196.556 102.217 194.159 101.235 192.361 99.272C190.563 97.3087 189.664 94.715 189.664 91.491C189.664 88.2463 190.553 85.6423 192.33 83.679C194.128 81.7157 196.525 80.734 199.522 80.734C202.56 80.734 204.968 81.7157 206.745 83.679C208.522 85.6217 209.411 88.2257 209.411 91.491ZM193.849 91.491C193.849 93.6817 194.366 95.4177 195.399 96.699C196.432 97.9803 197.817 98.621 199.553 98.621C201.31 98.621 202.694 97.9907 203.707 96.73C204.72 95.4487 205.226 93.7023 205.226 91.491C205.226 89.2797 204.72 87.5333 203.707 86.252C202.694 84.9707 201.299 84.33 199.522 84.33C197.765 84.33 196.381 84.9707 195.368 86.252C194.355 87.5333 193.849 89.2797 193.849 91.491ZM216.809 102H212.903V81.106H217.336L222.358 89.817C223.185 91.243 223.919 92.576 224.559 93.816C225.221 95.0353 225.665 95.9033 225.892 96.42L226.233 97.195C226.068 95.4797 225.985 93.0203 225.985 89.817V81.106H229.922V102H225.458L220.374 93.32C219.568 91.956 218.835 90.654 218.173 89.414C217.533 88.1533 217.088 87.244 216.84 86.686L216.468 85.818C216.696 87.7813 216.809 90.2717 216.809 93.289V102ZM246.708 102H234.246V81.106H246.584V84.299H238.183V89.972H245.654V93.134H238.183V98.807H246.708V102Z" fill="#F4F9FC"/>
</svg>
