<svg width="258" height="147" viewBox="0 0 258 147" fill="none" xmlns="http://www.w3.org/2000/svg">
<path d="M6.75741 135.424C6.75741 136.255 6.46341 136.908 5.87541 137.384C5.28741 137.86 4.52675 138.098 3.59341 138.098C2.55741 138.098 1.69875 137.897 1.01741 137.496V135.998C1.75475 136.549 2.60875 136.824 3.57941 136.824C4.09275 136.824 4.49875 136.707 4.79741 136.474C5.09608 136.231 5.24541 135.9 5.24541 135.48C5.24541 135.228 5.15675 134.999 4.97941 134.794C4.80208 134.579 4.61075 134.421 4.40541 134.318C4.20008 134.206 3.89208 134.057 3.48141 133.87C3.23875 133.758 3.06608 133.679 2.96341 133.632C2.87008 133.585 2.71141 133.501 2.48741 133.38C2.26341 133.259 2.09541 133.156 1.98341 133.072C1.88075 132.988 1.75008 132.871 1.59141 132.722C1.43275 132.573 1.31608 132.423 1.24141 132.274C1.17608 132.125 1.11075 131.952 1.04541 131.756C0.989414 131.551 0.961414 131.331 0.961414 131.098C0.961414 130.295 1.25075 129.661 1.82941 129.194C2.41741 128.727 3.17341 128.494 4.09741 128.494C4.94675 128.494 5.67008 128.643 6.26741 128.942V130.37C5.64208 129.978 4.93275 129.782 4.13941 129.782C3.62608 129.782 3.22008 129.899 2.92141 130.132C2.63208 130.356 2.48741 130.655 2.48741 131.028C2.48741 131.401 2.63208 131.7 2.92141 131.924C3.21075 132.148 3.65408 132.391 4.25141 132.652C4.64341 132.82 4.94675 132.965 5.16141 133.086C5.38541 133.207 5.63741 133.38 5.91741 133.604C6.20675 133.819 6.41675 134.08 6.54741 134.388C6.68741 134.687 6.75741 135.032 6.75741 135.424ZM15.5982 138H14.1562V133.87H9.9142V138H8.4722V128.564H9.9142V132.624H14.1562V128.564H15.5982V138ZM24.7857 129.712C25.5604 130.589 25.9477 131.765 25.9477 133.24C25.9477 134.715 25.5557 135.895 24.7717 136.782C23.997 137.669 22.947 138.112 21.6217 138.112C20.3057 138.112 19.251 137.669 18.4577 136.782C17.6737 135.895 17.2817 134.715 17.2817 133.24C17.2817 131.775 17.6737 130.599 18.4577 129.712C19.2417 128.825 20.2917 128.382 21.6077 128.382C22.9517 128.382 24.011 128.825 24.7857 129.712ZM19.5357 130.678C19.041 131.303 18.7937 132.157 18.7937 133.24C18.7937 134.323 19.0504 135.181 19.5637 135.816C20.077 136.451 20.763 136.768 21.6217 136.768C22.5084 136.768 23.199 136.455 23.6937 135.83C24.1884 135.205 24.4357 134.341 24.4357 133.24C24.4357 132.148 24.1837 131.289 23.6797 130.664C23.185 130.039 22.4944 129.726 21.6077 129.726C20.7304 129.726 20.0397 130.043 19.5357 130.678ZM31.2388 138H29.5028L27.0248 128.564H28.5228L29.4048 132.05L30.4408 136.474C30.8608 134.906 31.2715 133.431 31.6728 132.05L32.6388 128.704H33.9128L34.9068 132.064L36.1808 136.502C36.5262 134.803 36.8482 133.324 37.1468 132.064L37.9728 128.564H39.4288L37.1188 138H35.3968L34.5008 135.018L33.2828 130.804C33.0682 131.691 32.6762 133.095 32.1068 135.018L31.2388 138ZM45.5841 138H44.1421V128.564H45.8501L48.1741 132.512C48.6035 133.249 48.9908 133.931 49.3361 134.556C49.6908 135.181 49.9335 135.62 50.0641 135.872L50.2601 136.264C50.2041 135.415 50.1761 134.169 50.1761 132.526V128.564H51.6181V138H49.9101L47.5721 134.066C47.1521 133.357 46.7648 132.689 46.4101 132.064C46.0648 131.429 45.8221 130.972 45.6821 130.692L45.4721 130.286C45.5468 131.219 45.5841 132.475 45.5841 134.052V138ZM60.7837 129.712C61.5584 130.589 61.9457 131.765 61.9457 133.24C61.9457 134.715 61.5537 135.895 60.7697 136.782C59.9951 137.669 58.9451 138.112 57.6197 138.112C56.3037 138.112 55.2491 137.669 54.4557 136.782C53.6717 135.895 53.2797 134.715 53.2797 133.24C53.2797 131.775 53.6717 130.599 54.4557 129.712C55.2397 128.825 56.2897 128.382 57.6057 128.382C58.9497 128.382 60.0091 128.825 60.7837 129.712ZM55.5337 130.678C55.0391 131.303 54.7917 132.157 54.7917 133.24C54.7917 134.323 55.0484 135.181 55.5617 135.816C56.0751 136.451 56.7611 136.768 57.6197 136.768C58.5064 136.768 59.1971 136.455 59.6917 135.83C60.1864 135.205 60.4337 134.341 60.4337 133.24C60.4337 132.148 60.1817 131.289 59.6777 130.664C59.1831 130.039 58.4924 129.726 57.6057 129.726C56.7284 129.726 56.0377 130.043 55.5337 130.678ZM67.2369 138H65.5009L63.0229 128.564H64.5209L65.4029 132.05L66.4389 136.474C66.8589 134.906 67.2695 133.431 67.6709 132.05L68.6369 128.704H69.9109L70.9049 132.064L72.1789 136.502C72.5242 134.803 72.8462 133.324 73.1449 132.064L73.9709 128.564H75.4269L73.1169 138H71.3949L70.4989 135.018L69.2809 130.804C69.0662 131.691 68.6742 133.095 68.1049 135.018L67.2369 138Z" fill="#F4F9FC"/>
<path opacity="0.6" d="M9.84 17.12C8.912 17.792 7.74933 18.128 6.352 18.128C4.66667 18.128 3.30667 17.632 2.272 16.64C1.248 15.648 0.736 14.2987 0.736 12.592C0.736 10.9387 1.25333 9.6 2.288 8.576C3.33333 7.54133 4.656 7.024 6.256 7.024C7.504 7.024 8.54933 7.264 9.392 7.744V9.44C8.47467 8.864 7.45067 8.576 6.32 8.576C5.168 8.576 4.23467 8.944 3.52 9.68C2.816 10.416 2.464 11.3867 2.464 12.592C2.464 13.8293 2.81067 14.8053 3.504 15.52C4.208 16.2347 5.17333 16.592 6.4 16.592C7.04 16.592 7.648 16.4747 8.224 16.24V13.264H6.032V11.84H9.84V17.008H9.824L9.84 17.12ZM18.2826 18H12.0586V7.216H18.2026V8.592H13.7066V11.92H17.6906V13.296H13.7066V16.624H18.2826V18ZM26.7574 8.592H23.9254V18H22.2774V8.592H19.4614V7.216H26.7574V8.592ZM40.1398 13.872C40.1398 15.2693 39.7771 16.3307 39.0518 17.056C38.3264 17.7813 37.3238 18.144 36.0438 18.144C34.7851 18.144 33.7931 17.792 33.0678 17.088C32.3424 16.3733 31.9798 15.344 31.9798 14V7.216H33.6278V13.984C33.6278 14.9013 33.8464 15.5733 34.2838 16C34.7318 16.416 35.3184 16.624 36.0438 16.624C37.6758 16.624 38.4918 15.7173 38.4918 13.904V7.216H40.1398V13.872ZM45.6333 14.176H44.0973V18H42.4493V7.216H45.5373C46.7746 7.216 47.7559 7.54667 48.4813 8.208C49.2066 8.85867 49.5693 9.696 49.5693 10.72C49.5693 11.744 49.2013 12.576 48.4653 13.216C47.7399 13.856 46.7959 14.176 45.6333 14.176ZM45.4733 8.576H44.0973V12.816H45.5052C46.2839 12.816 46.8759 12.624 47.2813 12.24C47.6973 11.856 47.9053 11.3493 47.9053 10.72C47.9053 10.0587 47.6973 9.536 47.2813 9.152C46.8653 8.768 46.2626 8.576 45.4733 8.576ZM61.4605 8.592H58.6285V18H56.9805V8.592H54.1645V7.216H61.4605V8.592ZM71.1245 8.528C72.0098 9.53067 72.4525 10.8747 72.4525 12.56C72.4525 14.2453 72.0045 15.5947 71.1085 16.608C70.2232 17.6213 69.0232 18.128 67.5085 18.128C66.0045 18.128 64.7992 17.6213 63.8925 16.608C62.9965 15.5947 62.5485 14.2453 62.5485 12.56C62.5485 10.8853 62.9965 9.54133 63.8925 8.528C64.7885 7.51467 65.9885 7.008 67.4925 7.008C69.0285 7.008 70.2392 7.51467 71.1245 8.528ZM65.1245 9.632C64.5592 10.3467 64.2765 11.3227 64.2765 12.56C64.2765 13.7973 64.5698 14.7787 65.1565 15.504C65.7432 16.2293 66.5272 16.592 67.5085 16.592C68.5218 16.592 69.3112 16.2347 69.8765 15.52C70.4418 14.8053 70.7245 13.8187 70.7245 12.56C70.7245 11.312 70.4365 10.3307 69.8605 9.616C69.2952 8.90133 68.5058 8.544 67.4925 8.544C66.4898 8.544 65.7005 8.90667 65.1245 9.632ZM83.7059 15.12C83.7059 15.984 83.3965 16.6987 82.7779 17.264C82.1592 17.8187 81.2899 18.096 80.1699 18.096C79.1139 18.096 78.2232 17.9147 77.4979 17.552V16.016C78.2872 16.4427 79.1512 16.656 80.0899 16.656C80.7192 16.656 81.2099 16.5013 81.5619 16.192C81.9245 15.872 82.1059 15.4667 82.1059 14.976C82.1059 14.464 81.9085 14.0693 81.5139 13.792C81.1192 13.5147 80.5272 13.376 79.7379 13.376H79.0979V12.032H79.7379C80.3245 12.032 80.8152 11.888 81.2099 11.6C81.6152 11.3013 81.8179 10.896 81.8179 10.384C81.8179 9.872 81.6525 9.488 81.3219 9.232C81.0019 8.976 80.5592 8.848 79.9939 8.848C79.2685 8.848 78.5485 9.072 77.8339 9.52V8C78.4952 7.616 79.2312 7.424 80.0419 7.424C81.1085 7.424 81.9405 7.69067 82.5379 8.224C83.1459 8.74667 83.4499 9.408 83.4499 10.208C83.4499 10.784 83.3059 11.2907 83.0179 11.728C82.7405 12.1547 82.3245 12.48 81.7699 12.704C82.3779 12.8533 82.8525 13.136 83.1939 13.552C83.5352 13.968 83.7059 14.4907 83.7059 15.12ZM92.5171 12.736C92.5171 14.368 92.1918 15.6747 91.5411 16.656C90.9011 17.6373 89.9838 18.128 88.7891 18.128C87.6478 18.128 86.7465 17.6373 86.0851 16.656C85.4345 15.6747 85.1091 14.368 85.1091 12.736C85.1091 11.0933 85.4345 9.792 86.0851 8.832C86.7465 7.86133 87.6478 7.376 88.7891 7.376C89.9518 7.376 90.8638 7.856 91.5251 8.816C92.1865 9.776 92.5171 11.0827 92.5171 12.736ZM87.3011 9.856C86.9065 10.528 86.7091 11.488 86.7091 12.736C86.7091 13.984 86.9011 14.9547 87.2851 15.648C87.6798 16.3307 88.1811 16.672 88.7891 16.672C89.4505 16.672 89.9678 16.3307 90.3411 15.648C90.7145 14.9653 90.9011 13.9947 90.9011 12.736C90.9011 11.4667 90.7038 10.5013 90.3091 9.84C89.9251 9.168 89.4185 8.832 88.7891 8.832C88.1918 8.832 87.6958 9.17333 87.3011 9.856ZM98.0359 18.016H96.5639L102.388 7.168H103.876L98.0359 18.016ZM99.2999 9.68C99.2999 10.4267 99.0385 11.0613 98.5159 11.584C97.9932 12.1067 97.3585 12.368 96.6119 12.368C95.8759 12.368 95.2465 12.1067 94.7239 11.584C94.2012 11.0613 93.9399 10.4267 93.9399 9.68C93.9399 8.944 94.2012 8.31467 94.7239 7.792C95.2465 7.26933 95.8759 7.008 96.6119 7.008C97.3585 7.008 97.9932 7.26933 98.5159 7.792C99.0385 8.31467 99.2999 8.944 99.2999 9.68ZM95.2679 9.68C95.2679 10.0533 95.3959 10.3733 95.6519 10.64C95.9185 10.9067 96.2385 11.04 96.6119 11.04C96.9852 11.04 97.3052 10.9067 97.5719 10.64C97.8385 10.3733 97.9719 10.0533 97.9719 9.68C97.9719 9.30667 97.8385 8.992 97.5719 8.736C97.3052 8.46933 96.9852 8.336 96.6119 8.336C96.2385 8.336 95.9185 8.46933 95.6519 8.736C95.3959 9.00267 95.2679 9.31733 95.2679 9.68ZM106.548 15.44C106.548 16.1867 106.287 16.8213 105.764 17.344C105.241 17.856 104.612 18.112 103.876 18.112C103.129 18.112 102.495 17.856 101.972 17.344C101.449 16.8213 101.188 16.1867 101.188 15.44C101.188 14.704 101.449 14.0747 101.972 13.552C102.495 13.0187 103.129 12.752 103.876 12.752C104.612 12.752 105.241 13.0187 105.764 13.552C106.287 14.0747 106.548 14.704 106.548 15.44ZM102.916 14.48C102.649 14.7467 102.516 15.0667 102.516 15.44C102.516 15.8133 102.649 16.1333 102.916 16.4C103.183 16.6667 103.503 16.8 103.876 16.8C104.249 16.8 104.564 16.6667 104.82 16.4C105.087 16.1333 105.22 15.8133 105.22 15.44C105.22 15.0667 105.087 14.7467 104.82 14.48C104.564 14.2133 104.249 14.08 103.876 14.08C103.503 14.08 103.183 14.2133 102.916 14.48ZM120.359 8.528C121.244 9.53067 121.687 10.8747 121.687 12.56C121.687 14.2453 121.239 15.5947 120.343 16.608C119.458 17.6213 118.258 18.128 116.743 18.128C115.239 18.128 114.034 17.6213 113.127 16.608C112.231 15.5947 111.783 14.2453 111.783 12.56C111.783 10.8853 112.231 9.54133 113.127 8.528C114.023 7.51467 115.223 7.008 116.727 7.008C118.263 7.008 119.474 7.51467 120.359 8.528ZM114.359 9.632C113.794 10.3467 113.511 11.3227 113.511 12.56C113.511 13.7973 113.804 14.7787 114.391 15.504C114.978 16.2293 115.762 16.592 116.743 16.592C117.756 16.592 118.546 16.2347 119.111 15.52C119.676 14.8053 119.959 13.8187 119.959 12.56C119.959 11.312 119.671 10.3307 119.095 9.616C118.53 8.90133 117.74 8.544 116.727 8.544C115.724 8.544 114.935 8.90667 114.359 9.632ZM129.158 13.504H125.238V18H123.59V7.216H129.702V8.592H125.238V12.128H129.158V13.504ZM137.064 13.504H133.144V18H131.496V7.216H137.608V8.592H133.144V12.128H137.064V13.504ZM149.617 8.592H146.785V18H145.137V8.592H142.321V7.216H149.617V8.592ZM159.281 8.528C160.166 9.53067 160.609 10.8747 160.609 12.56C160.609 14.2453 160.161 15.5947 159.265 16.608C158.379 17.6213 157.179 18.128 155.665 18.128C154.161 18.128 152.955 17.6213 152.049 16.608C151.153 15.5947 150.705 14.2453 150.705 12.56C150.705 10.8853 151.153 9.54133 152.049 8.528C152.945 7.51467 154.145 7.008 155.649 7.008C157.185 7.008 158.395 7.51467 159.281 8.528ZM153.281 9.632C152.715 10.3467 152.433 11.3227 152.433 12.56C152.433 13.7973 152.726 14.7787 153.313 15.504C153.899 16.2293 154.683 16.592 155.665 16.592C156.678 16.592 157.467 16.2347 158.033 15.52C158.598 14.8053 158.881 13.8187 158.881 12.56C158.881 11.312 158.593 10.3307 158.017 9.616C157.451 8.90133 156.662 8.544 155.649 8.544C154.646 8.544 153.857 8.90667 153.281 9.632ZM165.904 18H162.512V7.216H165.872C167.472 7.216 168.784 7.712 169.808 8.704C170.832 9.696 171.344 10.96 171.344 12.496C171.344 14.096 170.858 15.4133 169.888 16.448C168.928 17.4827 167.6 18 165.904 18ZM165.84 8.624H164.192V16.608H165.888C167.114 16.608 168.048 16.224 168.688 15.456C169.328 14.688 169.648 13.7013 169.648 12.496C169.648 11.3867 169.301 10.464 168.608 9.728C167.914 8.992 166.992 8.624 165.84 8.624ZM175.744 13.44L175.568 13.984H179.024L178.848 13.44C178.442 12.1813 178.112 11.1413 177.856 10.32C177.6 9.488 177.445 8.97067 177.392 8.768L177.312 8.464C177.194 8.96533 176.672 10.624 175.744 13.44ZM174.256 18H172.512L176.24 7.216H178.4L182.08 18H180.32L179.472 15.36H175.12L174.256 18ZM188.242 18H186.594V13.984L182.946 7.216H184.834L185.602 8.8C186.093 9.792 186.487 10.608 186.786 11.248C187.085 11.888 187.261 12.2827 187.314 12.432L187.41 12.64C187.506 12.32 188.125 11.04 189.266 8.8L190.05 7.216H191.938L188.242 13.984V18ZM205.359 8.528C206.244 9.53067 206.687 10.8747 206.687 12.56C206.687 14.2453 206.239 15.5947 205.343 16.608C204.458 17.6213 203.258 18.128 201.743 18.128C200.239 18.128 199.034 17.6213 198.127 16.608C197.231 15.5947 196.783 14.2453 196.783 12.56C196.783 10.8853 197.231 9.54133 198.127 8.528C199.023 7.51467 200.223 7.008 201.727 7.008C203.263 7.008 204.474 7.51467 205.359 8.528ZM199.359 9.632C198.794 10.3467 198.511 11.3227 198.511 12.56C198.511 13.7973 198.804 14.7787 199.391 15.504C199.978 16.2293 200.762 16.592 201.743 16.592C202.756 16.592 203.546 16.2347 204.111 15.52C204.676 14.8053 204.959 13.8187 204.959 12.56C204.959 11.312 204.671 10.3307 204.095 9.616C203.53 8.90133 202.74 8.544 201.727 8.544C200.724 8.544 199.935 8.90667 199.359 9.632ZM210.238 18H208.59V7.216H210.542L213.198 11.728C213.689 12.5707 214.131 13.3493 214.526 14.064C214.931 14.7787 215.209 15.28 215.358 15.568L215.582 16.016C215.518 15.0453 215.486 13.6213 215.486 11.744V7.216H217.134V18H215.182L212.51 13.504C212.03 12.6933 211.587 11.9307 211.182 11.216C210.787 10.4907 210.51 9.968 210.35 9.648L210.11 9.184C210.195 10.2507 210.238 11.6853 210.238 13.488V18ZM225.529 18H219.465V7.216H221.113V16.544H225.529V18ZM231.648 18H230V13.984L226.352 7.216H228.24L229.008 8.8C229.499 9.792 229.894 10.608 230.192 11.248C230.491 11.888 230.667 12.2827 230.72 12.432L230.816 12.64C230.912 12.32 231.531 11.04 232.672 8.8L233.456 7.216H235.344L231.648 13.984V18ZM238.583 14.576H237.047V7.216H238.583V14.576ZM238.903 17.04C238.903 17.3493 238.796 17.6107 238.583 17.824C238.369 18.0267 238.108 18.128 237.799 18.128C237.489 18.128 237.228 18.0267 237.015 17.824C236.812 17.6107 236.711 17.3493 236.711 17.04C236.711 16.7307 236.812 16.4693 237.015 16.256C237.228 16.0427 237.489 15.936 237.799 15.936C238.097 15.936 238.353 16.048 238.567 16.272C238.791 16.4853 238.903 16.7413 238.903 17.04Z" fill="#F4F9FC"/>
<path d="M15.345 44.33H10.044V62H6.107V44.33H0.806V41.106H15.345V44.33ZM34.7055 62H30.7685V53.227H22.1815V62H18.2755V41.106H22.1815V49.848H30.7685V41.106H34.7055V62ZM51.505 62H39.043V41.106H51.381V44.299H42.98V49.972H50.451V53.134H42.98V58.807H51.505V62ZM65.5025 54.25H70.8345V44.051L65.5025 54.25ZM74.5545 62H70.8345V57.443H61.8135V54.25L68.5715 41.695H74.5545V54.25H77.2205V57.443H74.5545V62ZM96.7106 62H91.7816L84.2796 51.646L91.5026 41.106H96.1836L88.9296 51.584L96.7106 62ZM83.9696 62H80.0636V41.106H83.9696V62ZM123.437 62H119.5V53.227H110.913V62H107.007V41.106H110.913V49.848H119.5V41.106H123.437V62ZM134.594 62H127.774V41.106H134.594C137.715 41.106 140.267 42.067 142.251 43.989C144.235 45.911 145.227 48.3393 145.227 51.274C145.227 54.4773 144.266 57.071 142.344 59.055C140.422 61.0183 137.839 62 134.594 62ZM134.47 44.392H131.773V58.745H134.532C136.723 58.745 138.387 58.0733 139.523 56.73C140.66 55.366 141.228 53.5473 141.228 51.274C141.228 49.2693 140.619 47.6263 139.399 46.345C138.201 45.043 136.558 44.392 134.47 44.392ZM155.141 44.33H152.599V51.15H155.203C156.402 51.15 157.301 50.8503 157.9 50.251C158.5 49.631 158.799 48.7733 158.799 47.678C158.799 46.6033 158.479 45.7767 157.838 45.198C157.218 44.6193 156.319 44.33 155.141 44.33ZM152.599 62H148.693V41.106H155.141C157.518 41.106 159.378 41.7053 160.721 42.904C162.085 44.1027 162.767 45.7043 162.767 47.709C162.747 49.197 162.385 50.4577 161.682 51.491C160.98 52.5037 160.019 53.258 158.799 53.754L164.162 62H159.481L154.738 54.374H152.599V62ZM17.422 101.008C16.1407 101.835 14.3427 102.248 12.028 102.248C8.928 102.248 6.36533 101.277 4.34 99.334C2.33533 97.3707 1.333 94.777 1.333 91.553C1.333 88.391 2.325 85.818 4.309 83.834C6.31367 81.8293 8.88667 80.827 12.028 80.827C14.322 80.827 16.1097 81.2093 17.391 81.974V85.787C15.8203 84.8777 14.0843 84.423 12.183 84.423C10.2817 84.423 8.69033 85.074 7.409 86.376C6.14833 87.6573 5.518 89.383 5.518 91.553C5.518 93.723 6.14833 95.4487 7.409 96.73C8.69033 98.0113 10.354 98.652 12.4 98.652C14.3633 98.652 16.0373 98.1353 17.422 97.102V101.008ZM39.9706 91.491C39.9706 94.715 39.0716 97.3087 37.2736 99.272C35.4963 101.235 33.1093 102.217 30.1126 102.217C27.116 102.217 24.7186 101.235 22.9206 99.272C21.1226 97.3087 20.2236 94.715 20.2236 91.491C20.2236 88.2463 21.1123 85.6423 22.8896 83.679C24.6876 81.7157 27.085 80.734 30.0816 80.734C33.1196 80.734 35.5273 81.7157 37.3046 83.679C39.082 85.6217 39.9706 88.2257 39.9706 91.491ZM24.4086 91.491C24.4086 93.6817 24.9253 95.4177 25.9586 96.699C26.992 97.9803 28.3766 98.621 30.1126 98.621C31.8693 98.621 33.254 97.9907 34.2666 96.73C35.2793 95.4487 35.7856 93.7023 35.7856 91.491C35.7856 89.2797 35.2793 87.5333 34.2666 86.252C33.254 84.9707 31.859 84.33 30.0816 84.33C28.325 84.33 26.9403 84.9707 25.9276 86.252C24.915 87.5333 24.4086 89.2797 24.4086 91.491ZM46.997 102H43.091L44.765 81.106H49.229L52.081 88.701C52.577 89.9823 53.042 91.2637 53.476 92.545C53.91 93.8057 54.22 94.746 54.406 95.366L54.685 96.327C55.3256 94.1777 56.2143 91.6357 57.351 88.701L60.265 81.106H64.729L66.775 102H62.869L62.125 93.847L61.567 86.531C60.823 88.6597 59.9343 91.0983 58.901 93.847L55.987 101.69H53.321L50.469 93.847L48.02 86.624C48.02 87.6367 47.8856 90.0443 47.617 93.847L46.997 102ZM77.3733 94.901H74.6453V102H70.7393V81.106H77.2803C79.6363 81.106 81.517 81.7467 82.9223 83.028C84.3483 84.3093 85.0613 85.9523 85.0613 87.957C85.0613 90.0857 84.3277 91.7803 82.8603 93.041C81.4137 94.281 79.5847 94.901 77.3733 94.901ZM76.9393 84.299H74.6453V91.739H76.8463C78.2723 91.739 79.3367 91.398 80.0393 90.716C80.742 90.034 81.0933 89.1143 81.0933 87.957C81.0933 86.8203 80.742 85.9317 80.0393 85.291C79.3367 84.6297 78.3033 84.299 76.9393 84.299ZM93.5449 93.165L93.2659 94.064H99.1559L98.8769 93.134C98.1743 90.902 97.5956 89.0317 97.1409 87.523C96.7069 85.9937 96.4383 85.0327 96.3349 84.64L96.2109 84.02C96.0249 85.0533 95.1363 88.1017 93.5449 93.165ZM90.7549 102H86.6629L93.7309 81.106H98.7839L105.852 102H101.636L100.148 97.257H92.2429L90.7549 102ZM124.106 101.008C122.824 101.835 121.026 102.248 118.712 102.248C115.612 102.248 113.049 101.277 111.024 99.334C109.019 97.3707 108.017 94.777 108.017 91.553C108.017 88.391 109.009 85.818 110.993 83.834C112.997 81.8293 115.57 80.827 118.712 80.827C121.006 80.827 122.793 81.2093 124.075 81.974V85.787C122.504 84.8777 120.768 84.423 118.867 84.423C116.965 84.423 115.374 85.074 114.093 86.376C112.832 87.6573 112.202 89.383 112.202 91.553C112.202 93.723 112.832 95.4487 114.093 96.73C115.374 98.0113 117.038 98.652 119.084 98.652C121.047 98.652 122.721 98.1353 124.106 97.102V101.008ZM140.919 84.33H135.618V102H131.681V84.33H126.38V81.106H140.919V84.33ZM166.579 101.008C165.298 101.835 163.5 102.248 161.185 102.248C158.085 102.248 155.523 101.277 153.497 99.334C151.493 97.3707 150.49 94.777 150.49 91.553C150.49 88.391 151.482 85.818 153.466 83.834C155.471 81.8293 158.044 80.827 161.185 80.827C163.479 80.827 165.267 81.2093 166.548 81.974V85.787C164.978 84.8777 163.242 84.423 161.34 84.423C159.439 84.423 157.848 85.074 156.566 86.376C155.306 87.6573 154.675 89.383 154.675 91.553C154.675 93.723 155.306 95.4487 156.566 96.73C157.848 98.0113 159.511 98.652 161.557 98.652C163.521 98.652 165.195 98.1353 166.579 97.102V101.008ZM175.457 99.365C176.284 99.365 176.924 99.1273 177.379 98.652C177.854 98.156 178.092 97.5153 178.092 96.73V95.242H176.17C175.199 95.242 174.455 95.4487 173.938 95.862C173.421 96.2547 173.163 96.761 173.163 97.381C173.163 98.7037 173.928 99.365 175.457 99.365ZM178.247 100.109C177.524 101.452 176.16 102.124 174.155 102.124C172.667 102.124 171.479 101.69 170.59 100.822C169.722 99.954 169.288 98.8587 169.288 97.536C169.288 96.048 169.846 94.8803 170.962 94.033C172.078 93.1857 173.69 92.762 175.798 92.762H178.092V91.801C178.092 90.933 177.865 90.2717 177.41 89.817C176.955 89.3623 176.18 89.135 175.085 89.135C173.411 89.135 171.871 89.6 170.466 90.53V87.089C171.644 86.3657 173.339 86.004 175.55 86.004C179.807 86.004 181.936 87.988 181.936 91.956V102H178.247V100.109ZM208.064 102H204.313V92.359C204.313 90.251 203.507 89.197 201.895 89.197C201.089 89.197 200.365 89.5483 199.725 90.251C199.105 90.9537 198.795 92.0593 198.795 93.568V102H195.044V92.359C195.044 90.251 194.238 89.197 192.626 89.197C191.82 89.197 191.096 89.5483 190.456 90.251C189.815 90.9537 189.495 92.0593 189.495 93.568V102H185.775V86.283H189.495V88.763C190.383 86.9857 191.861 86.097 193.928 86.097C196.222 86.097 197.71 87.089 198.392 89.073C198.805 88.1223 199.425 87.3887 200.252 86.872C201.078 86.3553 202.019 86.097 203.073 86.097C204.664 86.097 205.894 86.5827 206.762 87.554C207.63 88.5047 208.064 89.8687 208.064 91.646V102ZM223.898 101.132C222.802 101.814 221.221 102.155 219.155 102.155C216.654 102.155 214.68 101.411 213.234 99.923C211.787 98.435 211.064 96.513 211.064 94.157C211.064 91.6563 211.746 89.693 213.11 88.267C214.474 86.841 216.179 86.128 218.225 86.128C220.271 86.128 221.893 86.748 223.092 87.988C224.29 89.228 224.89 91.0363 224.89 93.413C224.89 93.9917 224.817 94.7357 224.673 95.645H214.815C215.083 96.7817 215.641 97.6497 216.489 98.249C217.357 98.8483 218.431 99.148 219.713 99.148C221.366 99.148 222.761 98.7347 223.898 97.908V101.132ZM218.318 89.042C217.429 89.042 216.654 89.3727 215.993 90.034C215.352 90.6747 214.939 91.615 214.753 92.855H221.356V92.39C221.314 91.3773 221.035 90.5713 220.519 89.972C220.023 89.352 219.289 89.042 218.318 89.042ZM232.029 102H228.278L228.309 86.283H232.029V89.073C232.752 87.1303 234.075 86.159 235.997 86.159C236.431 86.159 236.782 86.19 237.051 86.252V89.848C236.576 89.6413 236.049 89.538 235.47 89.538C234.457 89.538 233.631 89.9513 232.99 90.778C232.349 91.6047 232.029 92.638 232.029 93.878V102ZM244.632 99.365C245.458 99.365 246.099 99.1273 246.554 98.652C247.029 98.156 247.267 97.5153 247.267 96.73V95.242H245.345C244.373 95.242 243.629 95.4487 243.113 95.862C242.596 96.2547 242.338 96.761 242.338 97.381C242.338 98.7037 243.102 99.365 244.632 99.365ZM247.422 100.109C246.698 101.452 245.334 102.124 243.33 102.124C241.842 102.124 240.653 101.69 239.765 100.822C238.897 99.954 238.463 98.8587 238.463 97.536C238.463 96.048 239.021 94.8803 240.137 94.033C241.253 93.1857 242.865 92.762 244.973 92.762H247.267V91.801C247.267 90.933 247.039 90.2717 246.585 89.817C246.13 89.3623 245.355 89.135 244.26 89.135C242.586 89.135 241.046 89.6 239.641 90.53V87.089C240.819 86.3657 242.513 86.004 244.725 86.004C248.982 86.004 251.111 87.988 251.111 91.956V102H247.422V100.109Z" fill="#F4F9FC"/>
</svg>
